<svg width="16" height="17" viewBox="0 0 16 17" fill="none" xmlns="http://www.w3.org/2000/svg">
<path fill-rule="evenodd" clip-rule="evenodd" d="M3.33325 3.83334C2.96506 3.83334 2.66659 4.13182 2.66659 4.5V13.8333C2.66659 14.2015 2.96506 14.5 3.33325 14.5H12.6666C13.0348 14.5 13.3333 14.2015 13.3333 13.8333V4.5C13.3333 4.13182 13.0348 3.83334 12.6666 3.83334H3.33325ZM1.33325 4.5C1.33325 3.39544 2.22868 2.50001 3.33325 2.50001H12.6666C13.7712 2.50001 14.6666 3.39544 14.6666 4.5V13.8333C14.6666 14.9379 13.7712 15.8333 12.6666 15.8333H3.33325C2.22868 15.8333 1.33325 14.9379 1.33325 13.8333V4.5Z" fill="white"/>
<path fill-rule="evenodd" clip-rule="evenodd" d="M10.6666 1.16667C11.0348 1.16667 11.3333 1.46515 11.3333 1.83334V4.5C11.3333 4.86819 11.0348 5.16667 10.6666 5.16667C10.2984 5.16667 9.99992 4.86819 9.99992 4.5V1.83334C9.99992 1.46515 10.2984 1.16667 10.6666 1.16667Z" fill="white"/>
<path fill-rule="evenodd" clip-rule="evenodd" d="M5.33325 1.16667C5.70144 1.16667 5.99992 1.46515 5.99992 1.83334V4.5C5.99992 4.86819 5.70144 5.16667 5.33325 5.16667C4.96506 5.16667 4.66659 4.86819 4.66659 4.5V1.83334C4.66659 1.46515 4.96506 1.16667 5.33325 1.16667Z" fill="white"/>
<path fill-rule="evenodd" clip-rule="evenodd" d="M1.33325 7.16667C1.33325 6.79848 1.63173 6.5 1.99992 6.5H13.9999C14.3681 6.5 14.6666 6.79848 14.6666 7.16667C14.6666 7.53486 14.3681 7.83334 13.9999 7.83334H1.99992C1.63173 7.83334 1.33325 7.53486 1.33325 7.16667Z" fill="white"/>
</svg>
