<svg width="16" height="17" viewBox="0 0 16 17" fill="none" xmlns="http://www.w3.org/2000/svg">
<g clip-path="url(#clip0)">
<path d="M14.6667 11.78V13.78C14.6675 13.9657 14.6294 14.1495 14.555 14.3196C14.4807 14.4897 14.3716 14.6424 14.2348 14.7679C14.0979 14.8934 13.9364 14.989 13.7605 15.0485C13.5847 15.108 13.3983 15.1301 13.2134 15.1133C11.1619 14.8904 9.19137 14.1894 7.46004 13.0667C5.84926 12.0431 4.48359 10.6775 3.46004 9.06668C2.33336 7.32748 1.6322 5.34734 1.41337 3.28668C1.39671 3.10232 1.41862 2.91652 1.4777 2.7411C1.53679 2.56567 1.63175 2.40447 1.75655 2.26776C1.88134 2.13105 2.03324 2.02182 2.20256 1.94703C2.37189 1.87224 2.55493 1.83352 2.74004 1.83335H4.74004C5.06357 1.83016 5.37723 1.94473 5.62254 2.1557C5.86786 2.36667 6.02809 2.65964 6.07337 2.98001C6.15779 3.62006 6.31434 4.2485 6.54004 4.85335C6.62973 5.09196 6.64915 5.35129 6.59597 5.6006C6.5428 5.84991 6.41928 6.07875 6.24004 6.26001L5.39337 7.10668C6.34241 8.77571 7.72434 10.1576 9.39337 11.1067L10.24 10.26C10.4213 10.0808 10.6501 9.95725 10.8995 9.90407C11.1488 9.8509 11.4081 9.87032 11.6467 9.96001C12.2516 10.1857 12.88 10.3423 13.52 10.4267C13.8439 10.4724 14.1396 10.6355 14.3511 10.885C14.5625 11.1345 14.6748 11.4531 14.6667 11.78Z" fill="white" stroke="black" stroke-width="2" stroke-linecap="round" stroke-linejoin="round"/>
</g>
<defs>
<clipPath id="clip0">
<rect width="16" height="16" fill="white" transform="translate(0 0.5)"/>
</clipPath>
</defs>
</svg>
